<svg width="151" height="36" viewBox="0 0 151 36" fill="none" xmlns="http://www.w3.org/2000/svg">
<g clip-path="url(#clip0_1234_1901)">
<g clip-path="url(#clip1_1234_1901)">
<g clip-path="url(#clip2_1234_1901)">
<path d="M142.862 35.8104C147.301 35.8104 150.899 32.2124 150.899 27.7741C150.899 23.3358 147.301 19.7378 142.862 19.7378C138.424 19.7378 134.826 23.3358 134.826 27.7741C134.826 32.2124 138.424 35.8104 142.862 35.8104Z" fill="#B5D7D3"/>
<path d="M142.854 33.7447C146.156 33.7447 148.834 31.0671 148.834 27.7642C148.834 24.4613 146.156 21.7837 142.854 21.7837C139.551 21.7837 136.873 24.4613 136.873 27.7642C136.873 31.0671 139.551 33.7447 142.854 33.7447Z" fill="#62B5AB"/>
<path d="M142.855 31.5039C144.919 31.5039 146.593 29.8304 146.593 27.7661C146.593 25.7017 144.919 24.0283 142.855 24.0283C140.791 24.0283 139.117 25.7017 139.117 27.7661C139.117 29.8304 140.791 31.5039 142.855 31.5039Z" fill="#2A9D8F"/>
<path d="M44.3046 22.1515C43.7574 24.4923 42.8149 26.3772 41.4773 27.806C40.1701 29.2348 38.574 30.2685 36.6892 30.9069C34.8043 31.5149 32.7067 31.8189 30.3962 31.8189C27.2345 31.8189 24.4985 31.2109 22.188 29.9949C19.908 28.7789 18.1447 27.0156 16.8983 24.7051C15.6822 22.3947 15.0742 19.5978 15.0742 16.3145C15.0742 13.0312 15.6822 10.2343 16.8983 7.92383C18.1447 5.61337 19.908 3.85014 22.188 2.63409C24.4985 1.41804 27.2345 0.810059 30.3962 0.810059C32.6155 0.810059 34.6827 1.12927 36.598 1.76765C38.5132 2.37568 40.1245 3.34854 41.4317 4.68614C42.7694 6.02378 43.651 7.77184 44.0766 9.9303L34.9564 13.4872C34.7131 11.5112 34.2115 10.2343 33.4515 9.65667C32.7219 9.07908 31.7947 8.79027 30.6698 8.79027C29.089 8.79027 27.9034 9.39825 27.1129 10.6143C26.3225 11.8 25.9273 13.7 25.9273 16.3145C25.9273 18.8986 26.2921 20.7986 27.0217 22.0146C27.7818 23.2307 29.0738 23.8387 30.8979 23.8387C31.9923 23.8387 32.8891 23.5195 33.5883 22.8811C34.2875 22.2123 34.7284 21.1634 34.9108 19.7346L44.3046 22.1515ZM75.3938 1.26605V18.4122C75.3938 27.35 70.5446 31.8189 60.8466 31.8189C51.149 31.8189 46.3 27.35 46.3 18.4122V1.26605H56.9707V19.233C56.9707 22.3035 58.2629 23.8387 60.8466 23.8387C63.4614 23.8387 64.7683 22.3035 64.7683 19.233V1.26605H75.3938ZM95.6823 1.26605C99.604 1.26605 102.614 2.14766 104.711 3.91094C106.809 5.64377 107.858 7.95423 107.858 10.8424C107.858 15.3721 105.973 18.3665 102.203 19.8258L109.545 31.3629H98.0077L92.6725 21.3762H89.7542V31.3629H79.3569V1.26605H95.6823ZM93.8583 14.3993C94.9829 14.3993 95.819 14.2017 96.3661 13.8064C96.9439 13.3808 97.2328 12.6512 97.2328 11.6176C97.2328 10.6143 96.9439 9.8999 96.3661 9.47427C95.819 9.04869 94.9829 8.83585 93.8583 8.83585H89.7542V14.3993H93.8583ZM111.509 31.3629V1.26605H136.499V9.06386H122.135V12.8032H133.717V20.0082H122.135V23.5651H137.046V31.3629H111.509Z" fill="#264653"/>
<path d="M3.84386 5.41343C3.86067 5.44494 3.85544 5.47483 3.85873 5.5094C3.86334 5.55776 3.86942 5.60476 3.87154 5.65334C3.87599 5.7546 3.88745 5.86057 3.89958 5.96118C3.90217 5.98265 3.91098 6.00157 3.9124 6.02348H4.80348V3.27485H2.5141V4.15907H3.67935C3.67935 4.35622 3.66252 4.54745 3.54522 4.71428C3.45778 4.83862 3.33438 4.91677 3.19954 4.98122C3.08491 5.03601 2.96153 5.06394 2.83625 5.07953C2.55444 5.11459 2.24633 5.08247 1.99316 4.94521C1.58199 4.72231 1.43846 4.26474 1.38507 3.83006C1.36971 3.7049 1.3694 3.57909 1.3694 3.45306C1.3694 2.98897 1.4521 2.46591 1.81494 2.13817C2.02861 1.94519 2.30074 1.86969 2.58264 1.86969C2.83801 1.86969 3.09385 1.93677 3.28865 2.11078C3.43341 2.24009 3.52681 2.4367 3.56968 2.62367C3.69736 2.58206 3.82192 2.52582 3.94668 2.47595C4.2319 2.36195 4.51707 2.24809 4.80348 2.13701C4.79541 2.08237 4.76744 2.03521 4.74356 1.98621C4.69709 1.89087 4.64405 1.80032 4.58528 1.71203C4.40326 1.43858 4.14898 1.20481 3.85071 1.06306C3.63006 0.958193 3.3981 0.899309 3.15841 0.859098C2.89257 0.814498 2.6177 0.808835 2.34959 0.827195C2.18802 0.83826 2.02899 0.851466 1.86978 0.885114C1.43901 0.97616 1.0362 1.1806 0.718239 1.48611C0.546864 1.65077 0.414085 1.85354 0.302221 2.06161C0.19185 2.26691 0.115883 2.49857 0.0690165 2.72649C-0.00195121 3.07161 -0.0123804 3.42488 0.0116105 3.77522C0.0605355 4.48967 0.30535 5.20208 0.889593 5.65729C1.30976 5.98465 1.83371 6.10573 2.35644 6.10573C2.61802 6.10573 2.87763 6.08038 3.12414 5.98654C3.33261 5.90719 3.51519 5.79176 3.67247 5.63277C3.73558 5.56898 3.80506 5.49508 3.84386 5.41343Z" fill="#2A9D8F"/>
<path d="M5.85254 0.901367V6.02164H9.93779V5.00718H7.18231V4.28746C7.18231 4.17104 7.19499 4.04634 7.18231 3.93103H9.28662V2.97826H7.18231V2.20371V2.01179C7.18231 1.98913 7.17559 1.95139 7.19327 1.93367C7.20609 1.92084 7.22741 1.9228 7.244 1.92269C7.28512 1.9224 7.32625 1.92268 7.36738 1.92268H7.8609H9.83498V0.901367H5.85254Z" fill="#2A9D8F"/>
<path d="M10.3896 0.901367V1.92268L12.0689 1.92954V6.02164H13.3918V2.96456V1.92954H15.0712V0.901367H10.3896Z" fill="#2A9D8F"/>
</g>
</g>
</g>
<defs>
<clipPath id="clip0_1234_1901">
<rect width="151" height="35" fill="white" transform="translate(0 0.810059)"/>
</clipPath>
<clipPath id="clip1_1234_1901">
<rect width="151" height="35" fill="white" transform="translate(0 0.810059)"/>
</clipPath>
<clipPath id="clip2_1234_1901">
<rect width="151" height="35" fill="white" transform="translate(0 0.810059)"/>
</clipPath>
</defs>
</svg>
